# xmcd
#
# Track frame offsets: 
#        150
#        13755
#        31823
#        48294
#        64125
#        88946
#        105020
#        120725
#        135856
#        154101
#        170427
#        185447
#        202159
#        223844
#
# Disc length: 3276 seconds
#
# Revision: 0
# Processed by: cddbd v1.4PL0 Copyright (c) Steve Scherf et al.
# Submitted via: ExactAudioCopy v0.90b4
#
DISCID=ba0cca0e
DTITLE=Lou Pride - I Won't Give Up
DYEAR=2000
DGENRE=Soul Blues
TTITLE0=Ace Of Spades
TTITLE1=Might Give Out
TTITLE2=Commin' Through The Back Door
TTITLE3=Fox In The Henhouse
TTITLE4=Deeper Shade Of Blue
TTITLE5=Love From A Stone
TTITLE6=Sweet Voice
TTITLE7=Mighty Big Shoes To Fill
TTITLE8=Blessing From God
TTITLE9=Blues For Cryin' Out Loud
TTITLE10=Strong, Strong Love
TTITLE11=Long Arm Of The Blues
TTITLE12=Twisting The Knife
TTITLE13=I Had A Talk With My Baby
EXTD=
EXTT0=
EXTT1=
EXTT2=
EXTT3=
EXTT4=
EXTT5=
EXTT6=
EXTT7=
EXTT8=
EXTT9=
EXTT10=
EXTT11=
EXTT12=
EXTT13=
PLAYORDER=
